<?xml version="1.0" standalone="no"?>
<!DOCTYPE svg PUBLIC "-//W3C//DTD SVG 20010904//EN"
 "http://www.w3.org/TR/2001/REC-SVG-20010904/DTD/svg10.dtd">
<svg version="1.0" xmlns="http://www.w3.org/2000/svg"
 width="500.000000pt" height="500.000000pt" viewBox="0 0 500.000000 500.000000"
 preserveAspectRatio="xMidYMid meet">

<g transform="translate(0.000000,500.000000) scale(0.100000,-0.100000)"
fill="#c5c5c5" stroke="none">
<path d="M1823 4985 c-86 -19 -157 -59 -227 -130 -93 -94 -126 -190 -126 -367
l0 -77 -407 -4 c-380 -3 -412 -5 -470 -24 -200 -67 -322 -283 -279 -492 8 -39
28 -95 43 -123 39 -72 120 -150 191 -184 71 -34 69 -27 77 -219 9 -212 240
-2944 254 -3015 17 -79 46 -133 114 -206 75 -81 148 -120 250 -135 81 -11
2433 -11 2514 0 102 15 175 54 250 135 68 73 97 127 114 206 14 71 245 2803
254 3015 8 192 6 185 77 219 71 34 152 112 191 184 126 233 11 533 -236 615
-58 19 -90 21 -469 24 l-408 4 0 77 c0 177 -33 273 -126 367 -72 72 -140 111
-231 130 -96 21 -1256 20 -1350 0z m1338 -298 c53 -35 69 -77 69 -184 l0 -93
-730 0 -730 0 0 93 c0 107 16 149 69 184 l34 23 627 0 627 0 34 -23z m1165
-582 c39 -16 74 -77 74 -130 0 -53 -35 -114 -74 -130 -53 -22 -3599 -22 -3652
0 -39 16 -74 77 -74 130 0 51 35 114 72 130 50 22 3602 22 3654 0z m-231 -617
c-12 -110 -134 -1598 -139 -1713 -6 -111 -33 -440 -90 -1107 -26 -292 -31
-312 -96 -355 l-33 -23 -1237 0 -1237 0 -33 23 c-65 43 -70 63 -96 355 -57
667 -84 996 -90 1107 -5 115 -127 1603 -139 1713 l-6 52 1601 0 1601 0 -6 -52z"/>
<path d="M1565 3226 c-36 -16 -70 -52 -84 -88 -8 -20 3 -235 39 -805 27 -428
61 -969 76 -1203 17 -264 32 -437 40 -457 26 -65 115 -97 191 -68 37 14 49 25
64 61 19 41 19 51 5 266 -8 123 -18 297 -21 388 -8 200 -103 1752 -110 1797
-11 61 -85 124 -147 123 -13 -1 -36 -7 -53 -14z"/>
<path d="M2445 3226 c-37 -17 -70 -52 -84 -89 -8 -20 -11 -403 -11 -1230 0
-1124 1 -1204 18 -1237 19 -38 88 -80 132 -80 44 0 113 42 133 80 16 33 17
109 15 1252 -3 1211 -3 1217 -24 1244 -47 64 -119 88 -179 60z"/>
<path d="M3325 3226 c-41 -18 -83 -69 -90 -109 -7 -45 -102 -1597 -110 -1797
-3 -91 -13 -265 -21 -388 -14 -215 -14 -225 5 -266 15 -36 27 -47 64 -61 76
-29 165 3 191 68 8 20 23 193 40 457 15 234 49 775 76 1203 36 570 47 785 39
805 -14 37 -48 72 -86 88 -40 17 -69 17 -108 0z"/>
</g>
</svg>
