<svg width="24" height="25" viewBox="0 0 24 25" fill="none" xmlns="http://www.w3.org/2000/svg">
<path fill-rule="evenodd" clip-rule="evenodd" d="M7.33021 2.039H16.6602C20.0602 2.039 22.0002 3.99634 22.0002 7.47264V16.9943C22.0002 20.4502 20.0702 22.4279 16.6702 22.4279H7.33021C3.92021 22.4279 2.00021 20.4502 2.00021 16.9943V7.47264C2.00021 3.99634 3.92021 2.039 7.33021 2.039ZM12.8202 13.0796H15.6602C16.1202 13.0694 16.4902 12.6922 16.4902 12.2233C16.4902 11.7543 16.1202 11.3771 15.6602 11.3771H12.8202V8.50228C12.8202 8.03334 12.4502 7.65614 11.9902 7.65614C11.5302 7.65614 11.1602 8.03334 11.1602 8.50228V11.3771H8.33021C8.11021 11.3771 7.90021 11.4689 7.74021 11.6218C7.59021 11.7849 7.50021 11.998 7.50021 12.2233C7.50021 12.6922 7.87021 13.0694 8.33021 13.0796H11.1602V15.9646C11.1602 16.4336 11.5302 16.8108 11.9902 16.8108C12.4502 16.8108 12.8202 16.4336 12.8202 15.9646V13.0796Z" fill="white"/>
</svg>
