<svg width="50" height="53" viewBox="0 0 50 53" fill="none" xmlns="http://www.w3.org/2000/svg">
<path d="M49.5 25.865V27.135C49.5 36.4697 44.1955 44.9933 35.8206 49.116C28.9978 52.4747 21.0022 52.4747 14.1794 49.116C5.80445 44.9933 0.5 36.4697 0.5 27.135V25.865C0.5 16.5303 5.80446 8.00674 14.1794 3.88401C21.0022 0.525321 28.9978 0.525321 35.8206 3.88401C44.1955 8.00674 49.5 16.5303 49.5 25.865Z" fill="#59BD7D" stroke="url(#paint0_linear_0_1)"/>
<path d="M36.0698 39.5986L33.2621 37.1236L31.6795 35.6524L30.0061 34.0986L30.6936 36.5173H15.8876C14.4048 36.512 13.2067 35.3064 13.2105 33.8236V16.1645C13.2082 14.6828 14.4059 13.4789 15.8876 13.4736H33.3927C34.8744 13.4789 36.0721 14.6828 36.0698 16.1645V39.5986ZM29.848 27.9221C29.2682 28.6997 28.4335 29.2487 27.4898 29.4731C27.8776 29.9681 28.3451 30.5278 28.3492 30.5333C29.9265 30.5666 31.4199 29.8248 32.3463 28.5478C32.2989 25.9005 31.656 23.2979 30.4653 20.933C29.4171 20.1104 28.1411 19.6304 26.8106 19.558H26.7955L26.6126 19.767C27.801 20.0862 28.9093 20.6511 29.8658 21.4253C28.6487 20.7562 27.3131 20.3303 25.9333 20.1713C25.0564 20.0739 24.1709 20.0826 23.2961 20.1974C23.2342 20.1986 23.1726 20.205 23.1118 20.2166H23.0733C22.0481 20.3347 21.0477 20.6131 20.1088 21.0416C19.6386 21.2575 19.3498 21.4143 19.3375 21.4198C19.3251 21.4253 19.3375 21.4198 19.3375 21.4101C20.3521 20.6121 21.5226 20.0356 22.7736 19.7175L22.6361 19.5608H22.6278C21.2974 19.6333 20.0214 20.1133 18.9731 20.9358C17.7781 23.299 17.1349 25.9026 17.0921 28.5505C18.0069 29.836 19.5025 30.5806 21.0796 30.536C21.0796 30.536 21.5718 29.9365 21.9555 29.4511C21.0356 29.22 20.2251 28.6754 19.6633 27.9111C19.673 27.918 19.8091 28.0101 20.0291 28.1311C20.0439 28.1485 20.0621 28.1626 20.0827 28.1724C20.1001 28.1844 20.1185 28.195 20.1377 28.204C20.1595 28.2139 20.1802 28.2259 20.1996 28.2398C20.5064 28.4089 20.8248 28.5559 21.1525 28.6798C21.7754 28.9264 22.4198 29.1152 23.0775 29.2435C23.6532 29.3521 24.2378 29.4073 24.8237 29.4085C25.3731 29.4085 25.9213 29.3578 26.4613 29.2573C27.1118 29.143 27.747 28.9548 28.3547 28.6963C28.8796 28.4944 29.3804 28.2347 29.848 27.9221ZM27.0457 27.335C26.4475 27.3872 25.8786 27.0668 25.6131 26.5281C25.3476 25.9895 25.44 25.3432 25.8458 24.9005C26.2515 24.4578 26.8874 24.3096 27.4471 24.5273C28.0067 24.745 28.3753 25.2839 28.3753 25.8844C28.4056 26.6515 27.8112 27.2993 27.0443 27.335H27.0457ZM22.2772 27.335C21.5249 27.2694 20.9475 26.6396 20.9475 25.8844C20.9475 25.1292 21.5249 24.4993 22.2772 24.4338C22.6238 24.4348 22.9551 24.5762 23.1957 24.8256C23.4687 25.109 23.6172 25.4896 23.6082 25.883C23.64 26.6515 23.0442 27.3008 22.2758 27.335H22.2772Z" fill="white"/>
<defs>
<linearGradient id="paint0_linear_0_1" x1="-47.5" y1="-35.5" x2="40" y2="49" gradientUnits="userSpaceOnUse">
<stop stop-color="white"/>
<stop offset="1" stop-color="white" stop-opacity="0"/>
</linearGradient>
</defs>
</svg>
