<svg width="27" height="48" viewBox="0 0 27 48" fill="none" xmlns="http://www.w3.org/2000/svg">
<path d="M8.96 32.408C8.96 30.7867 9.10933 29.4 9.408 28.248C9.74933 27.0533 10.304 25.9227 11.072 24.856C11.8827 23.7893 12.9707 22.68 14.336 21.528C16 20.12 17.28 18.9467 18.176 18.008C19.1147 17.0693 19.776 16.152 20.16 15.256C20.544 14.36 20.736 13.272 20.736 11.992C20.736 9.944 20.0747 8.36533 18.752 7.256C17.4293 6.14666 15.5093 5.592 12.992 5.592C10.9013 5.592 9.04533 5.86933 7.424 6.424C5.80267 6.936 4.24533 7.55466 2.752 8.28L0.768 3.8C2.47467 2.904 4.352 2.15733 6.4 1.56C8.49067 0.962664 10.816 0.663998 13.376 0.663998C17.4293 0.663998 20.5653 1.66666 22.784 3.672C25.0027 5.67733 26.112 8.408 26.112 11.864C26.112 13.784 25.792 15.4267 25.152 16.792C24.5547 18.1147 23.68 19.352 22.528 20.504C21.4187 21.6133 20.096 22.808 18.56 24.088C17.152 25.2827 16.064 26.328 15.296 27.224C14.5707 28.12 14.08 29.016 13.824 29.912C13.568 30.7653 13.44 31.8107 13.44 33.048V34.136H8.96V32.408ZM7.488 43.544C7.488 41.9653 7.85067 40.856 8.576 40.216C9.344 39.576 10.304 39.256 11.456 39.256C12.5227 39.256 13.44 39.576 14.208 40.216C14.976 40.856 15.36 41.9653 15.36 43.544C15.36 45.08 14.976 46.1893 14.208 46.872C13.44 47.5547 12.5227 47.896 11.456 47.896C10.304 47.896 9.344 47.5547 8.576 46.872C7.85067 46.1893 7.488 45.08 7.488 43.544Z" fill="#00FCFE"/>
</svg>
