<svg width="35" height="72" viewBox="0 0 35 72" fill="none" xmlns="http://www.w3.org/2000/svg">
<g filter="url(#filter0_f_282_8087)">
<path d="M12.96 37.408C12.96 35.7867 13.1093 34.4 13.408 33.248C13.7493 32.0533 14.304 30.9227 15.072 29.856C15.8827 28.7893 16.9707 27.68 18.336 26.528C20 25.12 21.28 23.9467 22.176 23.008C23.1147 22.0693 23.776 21.152 24.16 20.256C24.544 19.36 24.736 18.272 24.736 16.992C24.736 14.944 24.0747 13.3653 22.752 12.256C21.4293 11.1467 19.5093 10.592 16.992 10.592C14.9013 10.592 13.0453 10.8693 11.424 11.424C9.80267 11.936 8.24533 12.5547 6.752 13.28L4.768 8.8C6.47467 7.904 8.352 7.15733 10.4 6.56C12.4907 5.96266 14.816 5.664 17.376 5.664C21.4293 5.664 24.5653 6.66666 26.784 8.672C29.0027 10.6773 30.112 13.408 30.112 16.864C30.112 18.784 29.792 20.4267 29.152 21.792C28.5547 23.1147 27.68 24.352 26.528 25.504C25.4187 26.6133 24.096 27.808 22.56 29.088C21.152 30.2827 20.064 31.328 19.296 32.224C18.5707 33.12 18.08 34.016 17.824 34.912C17.568 35.7653 17.44 36.8107 17.44 38.048V39.136H12.96V37.408ZM11.488 48.544C11.488 46.9653 11.8507 45.856 12.576 45.216C13.344 44.576 14.304 44.256 15.456 44.256C16.5227 44.256 17.44 44.576 18.208 45.216C18.976 45.856 19.36 46.9653 19.36 48.544C19.36 50.08 18.976 51.1893 18.208 51.872C17.44 52.5547 16.5227 52.896 15.456 52.896C14.304 52.896 13.344 52.5547 12.576 51.872C11.8507 51.1893 11.488 50.08 11.488 48.544Z" fill="#00FCFE"/>
</g>
<path d="M12.96 37.408C12.96 35.7867 13.1093 34.4 13.408 33.248C13.7493 32.0533 14.304 30.9227 15.072 29.856C15.8827 28.7893 16.9707 27.68 18.336 26.528C20 25.12 21.28 23.9467 22.176 23.008C23.1147 22.0693 23.776 21.152 24.16 20.256C24.544 19.36 24.736 18.272 24.736 16.992C24.736 14.944 24.0747 13.3653 22.752 12.256C21.4293 11.1467 19.5093 10.592 16.992 10.592C14.9013 10.592 13.0453 10.8693 11.424 11.424C9.80267 11.936 8.24533 12.5547 6.752 13.28L4.768 8.8C6.47467 7.904 8.352 7.15733 10.4 6.56C12.4907 5.96266 14.816 5.664 17.376 5.664C21.4293 5.664 24.5653 6.66666 26.784 8.672C29.0027 10.6773 30.112 13.408 30.112 16.864C30.112 18.784 29.792 20.4267 29.152 21.792C28.5547 23.1147 27.68 24.352 26.528 25.504C25.4187 26.6133 24.096 27.808 22.56 29.088C21.152 30.2827 20.064 31.328 19.296 32.224C18.5707 33.12 18.08 34.016 17.824 34.912C17.568 35.7653 17.44 36.8107 17.44 38.048V39.136H12.96V37.408ZM11.488 48.544C11.488 46.9653 11.8507 45.856 12.576 45.216C13.344 44.576 14.304 44.256 15.456 44.256C16.5227 44.256 17.44 44.576 18.208 45.216C18.976 45.856 19.36 46.9653 19.36 48.544C19.36 50.08 18.976 51.1893 18.208 51.872C17.44 52.5547 16.5227 52.896 15.456 52.896C14.304 52.896 13.344 52.5547 12.576 51.872C11.8507 51.1893 11.488 50.08 11.488 48.544Z" fill="#00FCFE"/>
<defs>
<filter id="filter0_f_282_8087" x="0.767944" y="1.664" width="33.3441" height="55.232" filterUnits="userSpaceOnUse" color-interpolation-filters="sRGB">
<feFlood flood-opacity="0" result="BackgroundImageFix"/>
<feBlend mode="normal" in="SourceGraphic" in2="BackgroundImageFix" result="shape"/>
<feGaussianBlur stdDeviation="2" result="effect1_foregroundBlur_282_8087"/>
</filter>
</defs>
</svg>
