<svg width="80" height="80" viewBox="0 0 80 80" fill="none" xmlns="http://www.w3.org/2000/svg">
<circle cx="40" cy="40" r="40" fill="#414350"/>
<path d="M39.612 26.324C42.18 26.324 44.232 26.996 45.768 28.34C47.328 29.684 48.108 31.58 48.108 34.028C48.108 36.284 47.364 38.048 45.876 39.32C44.412 40.568 42.468 41.204 40.044 41.228L39.864 43.928H34.464L34.284 37.232H36.444C38.292 37.232 39.696 37.004 40.656 36.548C41.64 36.092 42.132 35.264 42.132 34.064C42.132 33.224 41.904 32.564 41.448 32.084C40.992 31.604 40.356 31.364 39.54 31.364C38.676 31.364 38.004 31.616 37.524 32.12C37.044 32.6 36.804 33.26 36.804 34.1H31.008C30.96 32.636 31.26 31.316 31.908 30.14C32.58 28.964 33.564 28.04 34.86 27.368C36.18 26.672 37.764 26.324 39.612 26.324ZM37.236 53.288C36.156 53.288 35.268 52.976 34.572 52.352C33.9 51.704 33.564 50.912 33.564 49.976C33.564 49.016 33.9 48.212 34.572 47.564C35.268 46.916 36.156 46.592 37.236 46.592C38.292 46.592 39.156 46.916 39.828 47.564C40.524 48.212 40.872 49.016 40.872 49.976C40.872 50.912 40.524 51.704 39.828 52.352C39.156 52.976 38.292 53.288 37.236 53.288Z" fill="#6D7089"/>
</svg>
