<?xml version="1.0" standalone="no"?>
<!DOCTYPE svg PUBLIC "-//W3C//DTD SVG 20010904//EN"
 "http://www.w3.org/TR/2001/REC-SVG-20010904/DTD/svg10.dtd">
<svg version="1.0" xmlns="http://www.w3.org/2000/svg"
 width="256.000000pt" height="256.000000pt" viewBox="0 0 256.000000 256.000000"
 preserveAspectRatio="xMidYMid meet">

<g transform="translate(0.000000,256.000000) scale(0.100000,-0.100000)"
fill="#ffffff" stroke="none">
<path d="M281 2358 c-56 -30 -91 -91 -91 -158 0 -31 38 -172 110 -413 61 -202
110 -373 110 -382 0 -13 63 -15 545 -15 598 0 599 0 629 -59 20 -38 20 -64 0
-102 -30 -59 -31 -59 -629 -59 -482 0 -545 -2 -545 -15 0 -9 -49 -180 -110
-382 -72 -241 -110 -382 -110 -413 0 -67 35 -128 91 -158 90 -48 54 -63 1066
442 521 260 927 469 948 487 99 87 99 211 0 298 -21 18 -427 227 -948 487
-1012 505 -976 490 -1066 442z"/>
</g>
</svg>
