<svg width="50" height="53" viewBox="0 0 50 53" fill="none" xmlns="http://www.w3.org/2000/svg">
<path d="M49.5 25.865V27.135C49.5 36.4697 44.1955 44.9933 35.8206 49.116C28.9978 52.4747 21.0022 52.4747 14.1794 49.116C5.80445 44.9933 0.5 36.4697 0.5 27.135V25.865C0.5 16.5303 5.80446 8.00674 14.1794 3.88401C21.0022 0.525321 28.9978 0.525321 35.8206 3.88401C44.1955 8.00674 49.5 16.5303 49.5 25.865Z" fill="#59BD7D" stroke="url(#paint0_linear_0_1)"/>
<path d="M34.2986 20.2374C35.3818 19.5898 36.1923 18.5702 36.5787 17.3688C35.5609 17.9727 34.4472 18.3981 33.286 18.6267C31.676 16.9235 29.1251 16.5091 27.0587 17.6149C24.9923 18.7206 23.922 21.0729 24.4458 23.3573C20.2766 23.148 16.3923 21.1786 13.7593 17.9391C12.3853 20.3092 13.0874 23.3389 15.364 24.8629C14.5408 24.8364 13.7358 24.6135 13.0162 24.2128C13.0162 24.2345 13.0162 24.2563 13.0162 24.278C13.0167 26.7468 14.7567 28.8734 17.1765 29.3627C16.4129 29.5704 15.612 29.601 14.8348 29.4521C15.5153 31.5634 17.4611 33.0098 19.679 33.0529C17.8421 34.4946 15.5736 35.2765 13.2385 35.2727C12.8247 35.2733 12.4111 35.2494 12 35.2014C14.3712 36.7251 17.131 37.5339 19.9496 37.531C23.871 37.558 27.6395 36.012 30.4123 33.2391C33.185 30.4661 34.7306 26.6974 34.7034 22.7761C34.7034 22.5513 34.6981 22.3278 34.6877 22.1054C35.7032 21.3715 36.5797 20.4623 37.2759 19.4205C36.3298 19.8399 35.3262 20.1152 34.2986 20.2374Z" fill="white"/>
<defs>
<linearGradient id="paint0_linear_0_1" x1="-47.5" y1="-35.5" x2="40" y2="49" gradientUnits="userSpaceOnUse">
<stop stop-color="white"/>
<stop offset="1" stop-color="white" stop-opacity="0"/>
</linearGradient>
</defs>
</svg>
